<?xml version="1.0" encoding="UTF-8" standalone="no"?>
<svg
   xmlns:dc="http://purl.org/dc/elements/1.1/"
   xmlns:cc="http://creativecommons.org/ns#"
   xmlns:rdf="http://www.w3.org/1999/02/22-rdf-syntax-ns#"
   xmlns:svg="http://www.w3.org/2000/svg"
   xmlns="http://www.w3.org/2000/svg"
   viewBox="0 0 1125 1125"
   height="1125"
   width="1125"
   xml:space="preserve"
   version="1.1"
   id="svg4155"><metadata
     id="metadata4161"><rdf:RDF><cc:Work
         rdf:about=""><dc:format>image/svg+xml</dc:format><dc:type
           rdf:resource="http://purl.org/dc/dcmitype/StillImage" /><dc:title></dc:title></cc:Work></rdf:RDF></metadata><defs
     id="defs4159"><clipPath
       id="clipPath4169"
       clipPathUnits="userSpaceOnUse"><path
         id="path4171"
         d="M 0,900 900,900 900,0 0,0 0,900 Z" /></clipPath></defs><g
     transform="matrix(1.25,0,0,-1.25,0,1125)"
     id="g4163"><g
       id="g4165"><g
         clip-path="url(#clipPath4169)"
         id="g4167"><g
           style="fill:#000000"
           transform="translate(470.8633,558.0288)"
           id="g4173"><path
             id="path4175"
             style="fill:#000000;fill-opacity:1;fill-rule:nonzero;stroke:none"
             d="m 0,0 c 0.729,2.528 0.931,4.881 0.943,7.509 0.003,0.634 -0.456,1.314 -1.101,1.447 -8.259,1.695 -16.471,-2.163 -17.01,-11.225 -0.039,-0.654 0.485,-1.285 1.102,-1.446 5.184,-1.356 12.792,-3.128 17.409,0.751 3.203,2.691 3.234,6.955 2.053,10.668 -2.556,8.034 -11.804,16.654 -20.64,12.844 -4.932,-2.127 -7.941,-8.687 -8.766,-13.656 -0.81,-4.886 1.074,-9.448 4.457,-12.924 8.247,-8.473 22.909,-9.557 33.802,-7.262 C 25.361,-10.532 34.61,-0.66 34.738,12.95 34.89,29.186 20.87,40.808 7.069,46.392 -6.729,51.974 -25.763,53.147 -38.012,43.285 -52.201,31.86 -55.078,9.58 -53.025,-7.319 c 2.566,-21.125 13.668,-41.744 31.296,-53.969 9.557,-6.629 19.739,-9.225 31.083,-6.124 13.021,3.56 24.375,12.839 38.095,13.86 0.732,0.054 1.611,0.646 1.5,1.5 -0.735,5.676 -5.404,8.313 -10.371,10.139 -7.336,2.696 -15.307,3.352 -22.828,5.391 -4.141,1.122 -7.463,3.413 -11.073,5.657 -4.618,2.871 -9.709,6.276 -12.543,11.05 -3.581,6.03 -3.603,13.364 -10.961,16.326 -1.796,0.723 -2.569,-2.18 -0.797,-2.893 6.933,-2.79 6.144,-11.84 10.474,-16.908 4.994,-5.846 12.529,-11.571 19.63,-14.567 5.946,-2.507 12.501,-3.35 18.775,-4.676 5.324,-1.125 15.814,-2.732 16.694,-9.519 l 1.5,1.5 C 35.925,-51.41 25.776,-57.786 15.327,-62.126 9.841,-64.404 4.124,-66.055 -1.856,-65.98 c -5.858,0.074 -11.514,3.051 -16.408,6.016 -17.944,10.87 -28.56,31.616 -31.65,51.839 -2.733,17.897 1.096,43.56 19.163,52.367 15.794,7.699 37.407,2.007 50.479,-8.545 12.356,-9.975 17.631,-30.197 3.341,-41.031 -10.345,-7.843 -26.95,-7.875 -38.106,-1.816 -4.939,2.682 -8.531,7.183 -8.104,13 0.405,5.489 4.645,12.854 10.785,12.696 7.131,-0.183 20.28,-16.407 9.94,-20.199 -4.008,-1.47 -8.919,-0.198 -12.854,0.831 0.368,-0.482 0.735,-0.965 1.102,-1.447 0.421,7.083 6.995,9.608 13.213,8.332 C -1.322,6.545 -1.689,7.027 -2.057,7.509 -2.067,5.186 -2.245,3.047 -2.893,0.798 -3.43,-1.065 -0.534,-1.855 0,0" /></g><g
           style="fill:#000000"
           transform="translate(503.7588,555.3613)"
           id="g4177"><path
             id="path4179"
             style="fill:#000000;fill-opacity:1;fill-rule:nonzero;stroke:none"
             d="m 0,0 c 3.038,17.609 19.146,30.057 19.612,48.405 0.022,0.829 -0.698,1.485 -1.5,1.5 -14.518,0.28 -29.519,8.124 -43.963,3.505 -1.836,-0.587 -1.05,-3.484 0.797,-2.893 14.049,4.492 28.963,-3.339 43.166,-3.612 l -1.5,1.5 C 16.157,30.535 0.091,18.091 -2.893,0.798 -3.219,-1.094 -0.328,-1.903 0,0" /></g><g
           style="fill:#000000"
           transform="translate(510.6426,571.3633)"
           id="g4181"><path
             id="path4183"
             style="fill:#000000;fill-opacity:1;fill-rule:nonzero;stroke:none"
             d="m 0,0 c 1.59,-10.327 1.177,-19.608 9.278,-27.332 0.487,0.835 0.973,1.671 1.459,2.507 -18.353,2.761 -37.051,1.904 -55.515,0.946 -1.925,-0.1 -1.935,-3.101 0,-3 18.17,0.942 36.653,1.878 54.718,-0.839 1.372,-0.206 2.652,1.37 1.459,2.507 C 3.773,-17.94 4.381,-8.869 2.893,0.798 2.599,2.705 -0.291,1.892 0,0" /></g><g
           style="fill:#000000"
           transform="translate(515.248,544.5376)"
           id="g4185"><path
             id="path4187"
             style="fill:#000000;fill-opacity:1;fill-rule:nonzero;stroke:none"
             d="m 0,0 c 15.498,-3.155 26.579,7.76 39.383,14.371 -0.735,0.565 -1.469,1.129 -2.203,1.694 -2.083,-9.331 -4.329,-18.604 -7.671,-27.577 -2.063,-5.539 -4.808,-14.289 -9.91,-17.808 -7.346,-5.068 -15.876,-8.733 -24.005,-12.316 -10.965,-4.834 -22.298,-9.124 -33.952,-11.975 -5.238,-1.282 -18.894,-5.111 -22.179,1.581 -0.853,1.737 -3.44,0.216 -2.59,-1.513 3.427,-6.982 14.331,-5.114 20.377,-4.061 12.439,2.168 24.571,6.865 36.147,11.779 9.426,4.002 19.177,8.189 27.716,13.914 5.222,3.501 7.538,10.609 9.903,16.147 4.243,9.937 6.711,20.521 9.056,31.032 0.293,1.311 -1.013,2.308 -2.203,1.694 C 26.014,10.84 15.202,-0.04 0.797,2.893 -1.091,3.277 -1.896,0.386 0,0" /></g><g
           style="fill:#000000"
           transform="translate(536.2656,512.0264)"
           id="g4189"><path
             id="path4191"
             style="fill:#000000;fill-opacity:1;fill-rule:nonzero;stroke:none"
             d="m 0,0 c 30.03,26.535 58.061,73.769 38.018,113.852 -9.976,19.947 -31.298,33.232 -52.95,36.498 -21.301,3.213 -43.002,-3.374 -61.042,-14.539 -13.094,-8.105 -24.33,-19.106 -33.064,-31.754 -1.102,-1.597 1.5,-3.095 2.591,-1.515 26.567,38.477 81.542,61.578 122.877,31.699 C 37.003,119.37 44.918,95.233 40.221,70.781 35.821,47.874 22.293,26.891 6.388,10.241 3.679,7.405 0.817,4.718 -2.121,2.121 -3.574,0.838 -1.443,-1.276 0,0" /></g><g
           style="fill:#000000"
           transform="translate(478.3066,608.8247)"
           id="g4193"><path
             id="path4195"
             style="fill:#000000;fill-opacity:1;fill-rule:nonzero;stroke:none"
             d="m 0,0 c -24.106,-2.707 -49.751,13.246 -72.452,-0.263 -17.068,-10.156 -25.755,-31.726 -28.164,-50.558 -1.273,-9.948 -0.377,-20.719 3.057,-30.163 3.216,-8.845 9.701,-15.737 16.602,-21.886 9.155,-8.156 19.058,-14.55 31.169,-17.162 11.343,-2.446 23.188,-1.24 34.654,-0.606 2.081,0.116 4.162,0.207 6.244,0.288 1.928,0.075 1.936,3.076 0,3 -10.749,-0.417 -21.507,-1.565 -32.268,-0.851 -13.12,0.872 -24.484,6.323 -34.472,14.693 -7.032,5.892 -13.744,12.251 -17.86,20.573 -4.432,8.959 -5.139,19.942 -4.37,29.754 1.507,19.228 10.887,40.785 27.965,50.949 C -48.826,10.305 -22.594,-5.537 0,-3 1.9,-2.787 1.921,0.216 0,0" /></g><g
           style="fill:#000000"
           transform="translate(433.1006,602.395)"
           id="g4197"><path
             id="path4199"
             style="fill:#000000;fill-opacity:1;fill-rule:nonzero;stroke:none"
             d="m 0,0 c -30.946,-21.721 -54.721,-94.871 -6.753,-111.198 1.837,-0.626 2.618,2.273 0.798,2.892 -45.162,15.372 -21.272,85.542 7.469,105.715 C 3.084,-1.488 1.587,1.114 0,0" /></g><g
           style="fill:#000000"
           transform="translate(581.2617,577.811)"
           id="g4201"><path
             id="path4203"
             style="fill:#000000;fill-opacity:1;fill-rule:nonzero;stroke:none"
             d="m 0,0 c 9.29,-10.452 17.078,-22.155 20.768,-35.771 3.676,-13.566 1.491,-27.648 -4.209,-40.302 -5.762,-12.79 -14.636,-23.404 -27.812,-28.775 -11.965,-4.878 -25.046,-3.083 -37.518,-5.472 -2.921,-0.559 -5.819,-1.25 -8.723,-1.888 -2.086,-0.458 -7.421,-2.488 -9.376,-1.351 -4.282,2.489 -7.675,2.97 -12.373,1.198 -5.237,-1.975 -9.921,-4.66 -15.326,-6.294 -7.625,-2.307 -15.482,-3.1 -23.416,-3.233 -13.638,-0.229 -26.891,1.529 -39.619,6.539 -14.33,5.641 -28.096,13.421 -41.958,20.131 -12.732,6.163 -25.404,12.459 -37.763,19.346 -1.039,0.579 -2.735,-0.4 -2.204,-1.694 3.955,-9.646 11.587,-17.678 18.368,-25.411 8.023,-9.15 15.308,-18.913 24.03,-27.427 9.819,-9.586 20.819,-17.899 31.704,-26.218 6.251,-4.777 13.302,-12.347 21.9,-9.897 4.525,1.29 8.761,4.086 12.883,6.264 7.34,3.876 15.198,7.047 22.787,10.408 14.895,6.595 30.185,12.455 46.175,15.764 18.964,3.925 38.135,7.991 55.997,15.685 13.646,5.878 26.433,13.819 35.584,25.735 9.541,12.423 12.833,29.365 10.974,44.726 -1.868,15.443 -15.741,21.872 -23.386,33.976 C 8.935,-0.418 2.048,15.93 -1.049,31.687 -1.422,33.584 -4.312,32.779 -3.941,30.89 -2.143,21.734 1.248,12.8 4.917,4.25 c 3.935,-9.171 8.338,-18.37 14.561,-26.234 2.775,-3.508 6.51,-6.069 9.674,-9.202 3.698,-3.661 6.458,-7.937 7.928,-12.937 2.951,-10.043 1.205,-22.697 -1.996,-32.456 -6.457,-19.679 -24.83,-31.883 -43.03,-39.543 -18.63,-7.84 -38.504,-11.501 -58.133,-15.838 -20.612,-4.554 -40.055,-13.678 -59.119,-22.487 -4.239,-1.958 -8.399,-3.989 -12.529,-6.165 -2.888,-1.522 -5.955,-3.295 -9.279,-3.523 -6.366,-0.439 -13.657,7.62 -18.184,11.08 -15.698,11.996 -31.39,24.291 -43.503,40.062 -9.085,11.828 -22.182,22.177 -27.943,36.224 -0.735,-0.564 -1.469,-1.129 -2.204,-1.694 13.456,-7.496 27.283,-14.283 41.148,-20.982 13.029,-6.296 25.909,-13.29 39.291,-18.797 11.73,-4.827 24.17,-6.463 36.771,-6.648 12.614,-0.184 25.948,1.256 37.42,6.849 2.653,1.294 5.21,2.703 8.05,3.567 3.309,1.008 5.736,-0.49 8.448,-2.066 1.429,-0.831 3.44,-0.023 4.9,0.222 3.519,0.589 6.999,1.411 10.481,2.184 12.56,2.789 25.56,1.491 37.921,5.029 23.195,6.637 37.206,30.611 39.741,53.501 2.425,21.893 -9.186,41.949 -23.21,57.725 C 0.833,3.57 -1.28,1.44 0,0" /></g><g
           style="fill:#000000"
           transform="translate(349.0688,498.375)"
           id="g4205"><path
             id="path4207"
             style="fill:#000000;fill-opacity:1;fill-rule:nonzero;stroke:none"
             d="M 0,0 C -3.732,10.292 -6.027,21.194 -6.465,32.14 -6.909,43.218 -4.905,56.274 5.536,62.315 4.784,62.747 4.031,63.179 3.279,63.61 3.221,44.407 0.526,24.694 15.616,10.099 c 18.077,-17.483 47.347,-21.98 71.189,-25.128 26.087,-3.445 52.476,-6.388 78.708,-2.688 12.432,1.754 24.065,5.683 35.247,11.315 9.4,4.735 18.057,11.279 21.667,21.51 3.935,11.153 0.511,26.368 -13.177,26.884 -1.935,0.072 -1.928,-2.928 0,-3 C 223.369,38.46 222.466,20.38 217.446,11.269 211.498,0.471 197.125,-5.584 186.135,-9.625 160.542,-19.034 131.593,-17.216 104.985,-14.31 78.378,-11.402 48.603,-8.47 25.496,6.215 15.865,12.335 9.086,20.866 6.908,32.151 4.931,42.394 6.248,53.257 6.279,63.61 6.282,64.752 5.003,65.474 4.022,64.906 -17.258,52.594 -9.637,17.803 -2.893,-0.798 -2.239,-2.602 0.661,-1.823 0,0" /></g><g
           style="fill:#000000"
           transform="translate(356.1836,562.4722)"
           id="g4209"><path
             id="path4211"
             style="fill:#000000;fill-opacity:1;fill-rule:nonzero;stroke:none"
             d="m 0,0 c 4.523,11.666 15.958,17.415 27.889,18.458 1.911,0.167 1.928,3.169 0,3 C 14.483,20.286 2.154,13.815 -2.893,0.798 -3.593,-1.009 -0.691,-1.783 0,0" /></g><g
           style="fill:#000000"
           transform="translate(464.9727,651.498)"
           id="g4213"><path
             id="path4215"
             style="fill:#000000;fill-opacity:1;fill-rule:nonzero;stroke:none"
             d="m 0,0 c -8.176,-0.561 -15.394,1.3 -20.453,8.08 -4.174,5.595 -6.151,12.733 -8.326,19.264 -0.304,0.912 -1.332,1.405 -2.203,0.897 -32.873,-19.185 -74.374,-7.653 -108.635,-23.195 -15.195,-6.892 -30.521,-22.269 -32.488,-39.494 -2.179,-19.085 7.516,-37.682 6.193,-56.832 -0.431,-6.251 -2.911,-12.029 -8.203,-15.606 -0.51,-0.345 -0.952,-1.053 -0.689,-1.695 4.794,-11.705 14.311,-20.414 20.612,-31.242 7.411,-12.736 10.232,-27.653 15.989,-41.126 9.736,-22.781 33.051,-39.464 53.051,-52.608 22.888,-15.043 47.33,-25.592 73.591,-33.28 13.343,-3.906 27.015,-7.429 40.741,-9.69 15.361,-2.531 31.029,-2.601 46.551,-2.916 10.901,-0.223 22.406,-2.071 33.22,-0.422 11.196,1.707 21.861,5.631 32.8,8.433 -0.486,0.836 -0.973,1.671 -1.459,2.507 -8.146,-9.556 -17.023,-18.587 -28.081,-24.744 -8.047,-4.48 -17.059,-6.683 -25.908,-8.96 -14.251,-3.668 -28.055,-5.121 -42.779,-4.375 -14.576,0.738 -29.137,3.268 -43.498,5.781 -26.053,4.559 -51.406,12.013 -74.527,25.082 -12.249,6.924 -23.437,15.51 -34.472,24.193 -10.646,8.376 -20.912,17.238 -30.399,26.917 -15.599,15.915 -28.468,34.412 -34.937,55.874 -4.901,16.263 -10.297,41.612 2.904,55.465 1.334,1.4 -0.784,3.524 -2.121,2.121 -13.352,-14.012 -9.099,-37.989 -4.687,-54.796 5.891,-22.442 18.737,-41.636 34.473,-58.442 18.008,-19.232 39.827,-36.714 62.185,-50.633 21.815,-13.581 46.227,-21.732 71.28,-26.874 14.835,-3.045 29.97,-5.46 45.037,-7.007 16.146,-1.659 32.761,-1.5 48.512,2.757 9.677,2.615 19.45,4.83 28.495,9.281 12.183,5.997 21.95,16.039 30.644,26.239 0.95,1.114 0.067,2.899 -1.459,2.507 -14.558,-3.73 -28.879,-9.771 -44.17,-8.699 -15.991,1.121 -32.05,0.729 -48.052,1.653 -28.963,1.673 -58.306,10.037 -85.362,20.241 -25.694,9.691 -49.787,24.27 -70.827,41.901 -10.227,8.57 -19.637,18.42 -26.193,30.117 -7.026,12.533 -9.477,27.268 -15.506,40.292 -5.948,12.852 -17.399,22.175 -22.756,35.251 -0.229,-0.565 -0.459,-1.129 -0.689,-1.694 14.83,10.025 9.475,31.467 6.686,46.098 -1.809,9.49 -4.023,19.214 -3.19,28.931 0.844,9.849 8.261,19.552 15.093,26.219 14.012,13.672 34.307,17.398 53.021,19.418 18.562,2.003 37.537,2.248 55.564,7.585 5.568,1.649 10.944,3.95 15.958,6.876 l -2.203,0.896 C -29.118,18.878 -26.677,10.953 -21.504,4.587 -16.222,-1.913 -7.962,-3.546 0,-3 1.919,-2.868 1.932,0.133 0,0" /></g><g
           style="fill:#000000"
           transform="translate(594.9404,370.6748)"
           id="g4217"><path
             id="path4219"
             style="fill:#000000;fill-opacity:1;fill-rule:nonzero;stroke:none"
             d="m 0,0 c 13.313,11.629 17.037,28.729 16.206,45.762 -0.403,8.282 -2.149,15.946 -4.637,23.818 -2.912,9.22 -6.652,20.303 -1.555,29.404 0.946,1.69 -1.645,3.203 -2.59,1.515 C -0.908,85.622 10.532,68.174 12.531,53.078 14.964,34.717 12.538,14.927 -2.121,2.121 -3.581,0.847 -1.45,-1.267 0,0" /></g><g
           style="fill:#000000"
           transform="translate(603.3809,452.6357)"
           id="g4221"><path
             id="path4223"
             style="fill:#000000;fill-opacity:1;fill-rule:nonzero;stroke:none"
             d="m 0,0 c -2.205,22.55 17.845,32.614 33.994,43.321 7.487,4.964 14.176,10.419 19.31,17.848 6.111,8.845 10.828,18.749 14.337,28.891 3.33,9.625 5.354,20.195 3.394,30.318 -2.073,10.702 -11.521,17.728 -18.541,25.261 -10.65,11.43 -11.077,26.297 -16.629,40.104 -3.285,8.169 -10.22,12.108 -18.732,12.647 -10.97,0.694 -21.885,-2.958 -32.858,-3.086 -1.933,-0.022 -1.935,-3.022 0,-3 10.668,0.125 21.069,3.139 31.73,3.121 5.05,-0.009 9.767,-1.37 13.414,-4.968 5.071,-5.005 6.208,-13.64 7.87,-20.242 1.621,-6.439 3.667,-12.527 6.795,-18.394 2.783,-5.219 7.347,-9.508 11.476,-13.641 4.135,-4.14 8.375,-8.273 10.989,-13.585 2.513,-5.108 2.514,-11.302 2.057,-16.836 C 67.614,95.735 62.67,83.911 57.119,73.346 52.27,64.117 46.556,56.229 38.195,49.918 24.414,39.517 5.564,32.326 -1.314,15.221 -3.245,10.421 -3.497,5.086 -3,0 -2.813,-1.907 0.188,-1.925 0,0" /></g><g
           style="fill:#000000"
           transform="translate(609.6045,553.0933)"
           id="g4225"><path
             id="path4227"
             style="fill:#000000;fill-opacity:1;fill-rule:nonzero;stroke:none"
             d="m 0,0 c 0.116,23.439 3.891,46.571 -7.563,68.116 -5.42,10.193 -12.405,19.561 -16.255,30.54 -2.757,7.863 -4.432,16.698 -9.968,23.207 -5.082,5.975 -14.917,4.93 -21.82,4.442 -4.54,-0.321 -9.062,-0.803 -13.62,-0.692 -5.825,0.141 -11.844,1.978 -17.362,3.712 -23.429,7.36 -43.386,23.591 -60.536,40.65 -0.709,0.705 -1.833,0.505 -2.355,-0.304 -7.963,-12.321 -17.256,-23.749 -30.469,-30.73 -11.106,-5.869 -23.897,-8.694 -29.99,-20.834 -0.865,-1.724 1.723,-3.243 2.591,-1.514 6.37,12.692 21.123,14.996 32.357,21.688 11.993,7.144 20.655,18.355 28.1,29.877 -0.785,-0.102 -1.57,-0.203 -2.355,-0.304 15.698,-15.615 33.255,-29.75 53.796,-38.43 8.549,-3.612 18.107,-6.614 27.455,-6.841 9.316,-0.226 20.469,3.495 29.284,-0.662 7.371,-3.476 9.355,-16.012 11.62,-22.938 C -23.808,88.95 -17.966,80.09 -12.661,71.051 -6.205,60.049 -2.866,49.309 -2.232,36.549 -1.628,24.373 -2.939,12.176 -3,0 -3.01,-1.935 -0.01,-1.934 0,0" /></g><g
           style="fill:#000000"
           transform="translate(455.1953,713.7246)"
           id="g4229"><path
             id="path4231"
             style="fill:#000000;fill-opacity:1;fill-rule:nonzero;stroke:none"
             d="m 0,0 c -22.525,-0.337 -20.807,28.958 -31.833,42.232 -0.318,0.383 -0.997,0.545 -1.459,0.386 -4.983,-1.709 -8.834,-4.786 -12.522,-8.47 -5.18,-5.175 -9.747,-10.192 -15.87,-14.348 -12.408,-8.421 -26.392,-14.371 -40.563,-19.068 -6.902,-2.288 -13.891,-4.314 -20.84,-6.453 -4.297,-1.323 -9.247,1.811 -12.842,-1.517 -2.783,-2.576 -3.213,-7.907 -4.073,-11.336 -1.77,-7.049 -8.153,-10.643 -14.613,-12.828 -4.448,-1.505 -9.171,-2.377 -13.792,-3.169 -2.021,-0.346 -3.76,-0.848 -5.141,-2.439 -2.277,-2.623 -3.786,-6.112 -5.551,-9.073 -4.075,-6.841 -8.523,-13.458 -12.891,-20.113 -15.349,-23.38 -28.582,-49.532 -31.659,-77.737 -2.608,-23.9 8.883,-47.033 17.839,-68.532 4.709,-11.304 9.521,-22.559 14.086,-33.922 3.759,-9.358 8.38,-18.308 14.402,-26.417 12.166,-16.383 30.495,-28.656 47.657,-39.254 9.095,-5.616 18.574,-10.63 28.457,-14.712 11.011,-4.546 22.367,-8.146 32.885,-13.847 1.7,-0.922 3.215,1.668 1.513,2.59 -11.931,6.467 -24.944,10.311 -37.325,15.737 -12.342,5.409 -23.983,12.467 -35.122,20.01 -11.024,7.464 -21.958,15.656 -30.955,25.523 -8.969,9.836 -14.963,21.827 -19.792,34.118 -5.699,14.508 -12.11,28.73 -17.921,43.194 -5.605,13.948 -12.108,28.689 -13.047,43.847 -0.906,14.617 3.152,29.245 8.135,42.834 5.255,14.333 12.11,27.535 20.365,40.343 6.987,10.839 13.648,21.903 20.645,32.722 1.323,2.045 3.435,2.101 5.66,2.483 5.564,0.954 11.174,2.252 16.385,4.446 4.309,1.815 7.783,4.607 10.613,8.292 2.918,3.802 2.635,9.549 4.556,13.839 1.424,3.179 5.446,1.592 8.046,1.265 2.598,-0.326 5.388,1.103 7.799,1.84 7.524,2.3 15.058,4.553 22.494,7.125 13.161,4.553 25.914,10.703 37.451,18.533 4.947,3.357 8.997,7.371 13.057,11.73 2.266,2.433 4.598,4.773 7.253,6.787 1.146,0.869 2.408,1.541 3.681,2.197 1.983,1.022 2.562,-0.946 3.341,-2.217 C -23.7,23.902 -23.933,2.722 -7.037,-2.275 -4.777,-2.944 -2.336,-3.035 0,-3 1.933,-2.971 1.936,0.029 0,0" /></g><g
           style="fill:#000000"
           transform="translate(272.9473,446.1348)"
           id="g4233"><path
             id="path4235"
             style="fill:#000000;fill-opacity:1;fill-rule:nonzero;stroke:none"
             d="m 0,0 c -9.619,-1.073 -18.692,-4.632 -27.912,-7.373 -9.862,-2.933 -20.9,-5.213 -30.005,0.943 -0.914,0.618 -2.333,-0.191 -2.257,-1.295 0.914,-13.299 7.05,-25.265 11.393,-37.659 3.99,-11.389 3.098,-23.921 9.428,-34.458 5.598,-9.319 14.424,-16.308 20.277,-25.542 7.801,-12.306 10.441,-27.172 17.793,-39.772 7.231,-12.393 17.052,-23.448 26.042,-34.573 8.507,-10.529 14.56,-22.917 21.914,-34.231 3.199,-4.919 6.707,-9.627 10.624,-13.997 3.457,-3.857 7.981,-6.678 12.367,-9.362 8.632,-5.284 16.98,-8.893 26.552,-3.91 3.309,1.721 6.254,3.981 9.744,5.371 4.791,1.908 10.505,1.053 15.362,-0.05 8.338,-1.896 16.036,-5.544 24.662,-6.197 16.744,-1.267 34.418,1.897 50.521,6.213 15.262,4.092 30.731,10.402 43.458,19.918 4.258,3.185 8.641,7.41 9.812,12.794 1.305,5.995 -4.264,9.791 -8.987,11.834 -0.119,-0.914 -0.238,-1.827 -0.358,-2.741 15.418,2.689 30.789,1.695 45.922,6.302 13.413,4.084 26.217,10.172 38.195,17.42 23.356,14.133 41.656,33.667 54.046,57.992 10.34,20.299 17.332,45.849 11.093,68.463 -1.952,7.074 -6.412,13.942 -14.169,15.043 -9.709,1.378 -19.186,-6.632 -26.879,-11.382 -9.191,-5.675 -13.153,-13.057 -16.706,-23.085 -0.649,-1.828 2.251,-2.607 2.892,-0.797 3.137,8.849 6.422,15.563 14.441,20.734 4.565,2.943 9.259,5.842 13.984,8.514 4.933,2.788 11.025,4.494 16.24,1.546 8.824,-4.989 9.348,-19.865 9.349,-28.572 10e-4,-13.383 -3.354,-26.488 -8.259,-38.862 -10.813,-27.276 -30.1,-49.309 -54.58,-65.148 -12.54,-8.113 -26.216,-14.466 -40.445,-18.973 -15.04,-4.764 -30.555,-3.623 -45.921,-6.302 -1.224,-0.213 -1.528,-2.237 -0.359,-2.742 5.85,-2.531 9.634,-6.319 5.937,-12.496 -2.873,-4.797 -8.195,-8.271 -12.911,-11.016 -11.177,-6.507 -22.602,-11.542 -35.059,-15.124 -12.893,-3.708 -26.264,-5.87 -39.659,-6.511 -6.354,-0.305 -12.731,-0.299 -18.951,1.149 -6.61,1.539 -12.858,4.263 -19.541,5.555 -5.021,0.971 -10.336,0.844 -15.111,-1.058 -5.223,-2.081 -9.324,-6.033 -14.905,-7.339 -5.681,-1.331 -12,2.654 -16.692,5.335 -5.172,2.954 -10,6.298 -13.983,10.743 -9.106,10.159 -15.417,22.637 -22.566,34.163 -7.432,11.981 -16.835,22.464 -25.406,33.613 -4.728,6.151 -9.069,12.6 -12.499,19.568 -3.555,7.224 -5.924,14.998 -8.953,22.445 -4.702,11.558 -12.175,20.392 -20.358,29.579 -3.836,4.307 -6.943,8.892 -8.811,14.38 -2.185,6.419 -2.057,13.442 -3.738,20.016 -3.743,14.632 -12.189,27.896 -13.242,43.209 -0.752,-0.431 -1.505,-0.863 -2.257,-1.295 C -41.375,-21.228 -18.724,-5.09 0,-3 1.9,-2.788 1.921,0.215 0,0" /></g><g
           style="fill:#000000"
           transform="translate(608.5957,468.0767)"
           id="g4237"><path
             id="path4239"
             style="fill:#000000;fill-opacity:1;fill-rule:nonzero;stroke:none"
             d="m 0,0 c 8.225,-3.11 15.199,-9.398 21.805,-15.006 7.562,-6.422 14.932,-13.065 22.863,-19.041 11.77,-8.87 27.363,-17.536 40.773,-6.986 11.782,9.27 16.765,26.622 21.445,40.162 5.073,14.675 9.115,32.501 20.112,44.086 3.711,3.909 8.468,5.977 13.863,5.632 1.397,-0.09 1.864,1.654 1.061,2.56 -9.922,11.195 -12.496,24.72 -16.801,38.519 -3.229,10.351 -2.21,22.18 -2.963,32.887 -0.563,8.024 -1.277,17.125 -8.145,22.357 -9.162,6.979 -20.202,10.261 -28.436,18.599 -10.364,10.496 -19.103,22.443 -29.89,32.547 -9.032,8.46 -19.253,16.288 -25.072,27.38 -4.09,7.795 -7.776,17.471 -15.464,22.471 -6.878,4.472 -16.549,0.309 -23.177,-2.501 -10.879,-4.612 -22.294,-9.162 -32.603,-14.917 -12.751,-7.12 -24.539,-16.342 -39.872,-15.99 -1.936,0.044 -1.932,-2.956 0,-3 12.004,-0.276 22.207,4.935 32.246,10.965 5.261,3.159 10.479,6.353 16.014,9.02 4.836,2.33 9.952,4.102 14.824,6.386 8.181,3.835 20.977,11.927 30.258,7.879 4.305,-1.877 7.083,-6.907 9.341,-10.755 2.699,-4.599 4.923,-9.464 7.485,-14.14 2.434,-4.44 5.607,-7.825 9.312,-11.267 5.328,-4.946 10.612,-9.929 15.909,-14.89 10.747,-10.067 19.455,-22.081 29.791,-32.548 7.625,-7.722 18.176,-10.968 26.905,-17.133 8.784,-6.204 7.675,-20.462 8.088,-29.995 0.957,-22.061 4.972,-46.893 20.129,-63.995 l 1.06,2.561 C 127.338,52.713 119.734,40.093 114.836,29.328 107.688,13.62 103.721,-3.327 96.738,-19.106 c -3.026,-6.839 -6.72,-13.658 -12.25,-18.803 -6.259,-5.825 -14.009,-6.162 -21.745,-3.343 -9.257,3.374 -17.358,10.171 -24.829,16.382 -7.469,6.21 -14.59,12.848 -22.287,18.779 C 11.031,-2.55 6.258,0.829 0.797,2.893 -1.016,3.578 -1.792,0.677 0,0" /></g><g
           style="fill:#000000"
           transform="translate(747.2734,511.4395)"
           id="g4241"><path
             id="path4243"
             style="fill:#000000;fill-opacity:1;fill-rule:nonzero;stroke:none"
             d="m 0,0 c 8.066,-12.322 17.479,-23.666 26.866,-34.989 4.243,-5.118 8.235,-10.532 13.072,-15.109 4.73,-4.474 10.163,-8.28 13.321,-14.128 2.772,-5.134 2.109,-12.376 1.802,-17.983 -0.368,-6.677 -1.344,-13.314 -2.078,-19.957 -1.593,-14.441 1.522,-29.42 -3.475,-43.34 -4.912,-13.682 -15.095,-25.986 -24.346,-36.961 -9.151,-10.856 -17.207,-22.359 -32.47,-23.801 -13.57,-1.281 -27.743,3.599 -40.981,6.056 -13.791,2.56 -27.56,5.354 -41.602,6.064 -6.213,0.314 -12.421,-0.02 -18.56,-1.009 -1.906,-0.307 -1.095,-3.197 0.797,-2.893 28.39,4.571 57.488,-5.742 85.261,-10.315 11.278,-1.857 23.75,-1.771 33.059,5.763 9.639,7.802 17.268,18.539 24.805,28.304 8.229,10.662 16.746,22.562 19.174,36.101 1.257,7.014 0.806,14.27 0.645,21.352 -0.147,6.451 0.459,12.787 1.207,19.188 1.199,10.261 4.288,23.847 -0.113,33.743 -2.171,4.881 -5.958,8.471 -9.888,11.976 -5.194,4.633 -9.593,9.49 -14.02,14.857 C 22.119,-24.525 11.52,-12.126 2.59,1.514 1.535,3.125 -1.063,1.624 0,0" /></g><g
           style="fill:#000000"
           transform="translate(312.9492,238.9922)"
           id="g4245"><path
             id="path4247"
             style="fill:#000000;fill-opacity:1;fill-rule:nonzero;stroke:none"
             d="m 0,0 c -17.717,-0.041 -35.161,-1.799 -49.604,10.403 -13.334,11.266 -21.709,29.533 -38.896,35.775 -0.776,0.281 -1.634,-0.31 -1.846,-1.048 -1.608,-5.603 -2.451,-17.14 -11.035,-14.638 -5.568,1.622 -10.528,7.576 -14.508,11.506 -10.341,10.212 -19.965,20.413 -28.627,32.158 -10.67,14.467 -23.295,27.049 -35.213,40.466 -13.793,15.528 -26.966,31.616 -39.45,48.215 -0.18,-0.684 -0.359,-1.368 -0.539,-2.052 17.605,13.032 34.8,27.012 44.858,46.935 5.765,11.418 9.71,24.067 13.928,36.116 4.772,13.629 9.095,27.412 13.303,41.223 3.484,11.438 5.99,22.88 8.484,34.561 2.521,11.805 5.876,23.668 13.692,33.161 2.911,3.537 6.032,2.663 9.896,1.467 5.773,-1.788 10.18,-4.333 14.47,-8.615 6.59,-6.579 11.458,-14.76 20.32,-18.601 1.756,-0.761 3.286,1.823 1.514,2.591 -9.303,4.031 -14.413,13.156 -21.524,19.892 -3.367,3.189 -7.326,5.501 -11.725,6.929 -2.894,0.941 -6.554,2.562 -9.681,1.916 -7.375,-1.524 -11.88,-12.67 -14.398,-18.756 -4.709,-11.384 -6.307,-23.935 -8.938,-35.895 -2.931,-13.328 -7.558,-26.412 -11.724,-39.396 -4.655,-14.508 -9.688,-28.892 -15.229,-43.085 -4.941,-12.656 -10.934,-23.624 -20.214,-33.656 -8.483,-9.171 -18.54,-16.789 -28.545,-24.197 -0.596,-0.44 -1.068,-1.349 -0.539,-2.052 13.024,-17.316 26.794,-34.046 41.183,-50.244 7.379,-8.308 15.23,-16.193 22.591,-24.509 6.563,-7.415 12.065,-15.727 18.121,-23.548 4.984,-6.436 10.7,-11.924 16.42,-17.654 4.704,-4.713 9.267,-9.663 14.552,-13.743 3.717,-2.869 8.906,-6.254 13.746,-3.647 5.638,3.037 6.125,10.85 7.704,16.355 -0.615,-0.35 -1.23,-0.699 -1.845,-1.048 C -71.562,36.844 -62.699,16.407 -48.136,5.42 -34.242,-5.062 -16.344,-3.038 0,-3 1.935,-2.995 1.935,0.005 0,0" /></g><g
           style="fill:#000000"
           transform="translate(288.3921,429.1191)"
           id="g4249"><path
             id="path4251"
             style="fill:#000000;fill-opacity:1;fill-rule:nonzero;stroke:none"
             d="m 0,0 c 4.451,-20.547 14.25,-40.114 24.68,-58.209 10.808,-18.75 23.647,-37.606 40.175,-51.806 17.655,-15.167 41.562,-20.596 64.287,-21.462 24.933,-0.949 51.411,3.134 75.168,10.684 21.696,6.896 41.524,18.64 61.828,28.695 17.149,8.494 34.454,20.525 46.635,35.428 1.213,1.484 -0.897,3.62 -2.121,2.121 -17.336,-21.211 -42.437,-32.996 -66.232,-45.249 -13.808,-7.11 -27.785,-13.931 -42.619,-18.645 -12.086,-3.841 -24.876,-6.102 -37.405,-7.918 -26.16,-3.794 -54.218,-3.717 -78.825,7.005 -20.703,9.02 -35.176,27.276 -47.561,45.498 C 22.827,-51.521 8.658,-25.817 2.893,0.797 2.483,2.688 -0.409,1.886 0,0" /></g></g></g></g></svg>